solid OpenSCAD_Model
  facet normal 1 -0 0
    outer loop
      vertex 2.395 72.78 48.87
      vertex 2.395 82.78 38.87
      vertex 2.395 82.78 48.87
    endloop
  endfacet
  facet normal 1 0 0
    outer loop
      vertex 2.395 82.78 38.87
      vertex 2.395 72.78 48.87
      vertex 2.395 72.78 38.87
    endloop
  endfacet
  facet normal -0 0 1
    outer loop
      vertex -1.395 82.78 48.87
      vertex 2.395 72.78 48.87
      vertex 2.395 82.78 48.87
    endloop
  endfacet
  facet normal 0 0 1
    outer loop
      vertex 2.395 72.78 48.87
      vertex -1.395 82.78 48.87
      vertex -1.395 72.78 48.87
    endloop
  endfacet
  facet normal 0 0 -1
    outer loop
      vertex -1.395 72.78 38.87
      vertex 2.395 82.78 38.87
      vertex 2.395 72.78 38.87
    endloop
  endfacet
  facet normal -0 0 -1
    outer loop
      vertex 2.395 82.78 38.87
      vertex -1.395 72.78 38.87
      vertex -1.395 82.78 38.87
    endloop
  endfacet
  facet normal -1 0 0
    outer loop
      vertex -1.395 72.78 38.87
      vertex -1.395 82.78 48.87
      vertex -1.395 82.78 38.87
    endloop
  endfacet
  facet normal -1 -0 0
    outer loop
      vertex -1.395 82.78 48.87
      vertex -1.395 72.78 38.87
      vertex -1.395 72.78 48.87
    endloop
  endfacet
  facet normal 0 1 -0
    outer loop
      vertex 2.395 82.78 38.87
      vertex -1.395 82.78 48.87
      vertex 2.395 82.78 48.87
    endloop
  endfacet
  facet normal 0 1 0
    outer loop
      vertex -1.395 82.78 48.87
      vertex 2.395 82.78 38.87
      vertex -1.395 82.78 38.87
    endloop
  endfacet
  facet normal 0 -1 0
    outer loop
      vertex -1.395 72.78 38.87
      vertex 2.395 72.78 48.87
      vertex -1.395 72.78 48.87
    endloop
  endfacet
  facet normal 0 -1 -0
    outer loop
      vertex 2.395 72.78 48.87
      vertex -1.395 72.78 38.87
      vertex 2.395 72.78 38.87
    endloop
  endfacet
  facet normal 1 -0 0
    outer loop
      vertex 2.395 8.24 165.8
      vertex 2.395 18.24 155.8
      vertex 2.395 18.24 165.8
    endloop
  endfacet
  facet normal 1 0 0
    outer loop
      vertex 2.395 18.24 155.8
      vertex 2.395 8.24 165.8
      vertex 2.395 8.24 155.8
    endloop
  endfacet
  facet normal -0 0 1
    outer loop
      vertex -1.395 18.24 165.8
      vertex 2.395 8.24 165.8
      vertex 2.395 18.24 165.8
    endloop
  endfacet
  facet normal 0 0 1
    outer loop
      vertex 2.395 8.24 165.8
      vertex -1.395 18.24 165.8
      vertex -1.395 8.24 165.8
    endloop
  endfacet
  facet normal 0 0 -1
    outer loop
      vertex -1.395 8.24 155.8
      vertex 2.395 18.24 155.8
      vertex 2.395 8.24 155.8
    endloop
  endfacet
  facet normal -0 0 -1
    outer loop
      vertex 2.395 18.24 155.8
      vertex -1.395 8.24 155.8
      vertex -1.395 18.24 155.8
    endloop
  endfacet
  facet normal -1 0 0
    outer loop
      vertex -1.395 8.24 155.8
      vertex -1.395 18.24 165.8
      vertex -1.395 18.24 155.8
    endloop
  endfacet
  facet normal -1 -0 0
    outer loop
      vertex -1.395 18.24 165.8
      vertex -1.395 8.24 155.8
      vertex -1.395 8.24 165.8
    endloop
  endfacet
  facet normal 0 1 -0
    outer loop
      vertex 2.395 18.24 155.8
      vertex -1.395 18.24 165.8
      vertex 2.395 18.24 165.8
    endloop
  endfacet
  facet normal 0 1 0
    outer loop
      vertex -1.395 18.24 165.8
      vertex 2.395 18.24 155.8
      vertex -1.395 18.24 155.8
    endloop
  endfacet
  facet normal 0 -1 0
    outer loop
      vertex -1.395 8.24 155.8
      vertex 2.395 8.24 165.8
      vertex -1.395 8.24 165.8
    endloop
  endfacet
  facet normal 0 -1 -0
    outer loop
      vertex 2.395 8.24 165.8
      vertex -1.395 8.24 155.8
      vertex 2.395 8.24 155.8
    endloop
  endfacet
  facet normal 1 -0 0
    outer loop
      vertex -31.175 8.24 165.8
      vertex -31.175 18.24 155.8
      vertex -31.175 18.24 165.8
    endloop
  endfacet
  facet normal 1 0 0
    outer loop
      vertex -31.175 18.24 155.8
      vertex -31.175 8.24 165.8
      vertex -31.175 8.24 155.8
    endloop
  endfacet
  facet normal -0 0 1
    outer loop
      vertex -34.965 18.24 165.8
      vertex -31.175 8.24 165.8
      vertex -31.175 18.24 165.8
    endloop
  endfacet
  facet normal 0 0 1
    outer loop
      vertex -31.175 8.24 165.8
      vertex -34.965 18.24 165.8
      vertex -34.965 8.24 165.8
    endloop
  endfacet
  facet normal 0 0 -1
    outer loop
      vertex -34.965 8.24 155.8
      vertex -31.175 18.24 155.8
      vertex -31.175 8.24 155.8
    endloop
  endfacet
  facet normal -0 0 -1
    outer loop
      vertex -31.175 18.24 155.8
      vertex -34.965 8.24 155.8
      vertex -34.965 18.24 155.8
    endloop
  endfacet
  facet normal -1 0 0
    outer loop
      vertex -34.965 8.24 155.8
      vertex -34.965 18.24 165.8
      vertex -34.965 18.24 155.8
    endloop
  endfacet
  facet normal -1 -0 0
    outer loop
      vertex -34.965 18.24 165.8
      vertex -34.965 8.24 155.8
      vertex -34.965 8.24 165.8
    endloop
  endfacet
  facet normal 0 1 -0
    outer loop
      vertex -31.175 18.24 155.8
      vertex -34.965 18.24 165.8
      vertex -31.175 18.24 165.8
    endloop
  endfacet
  facet normal 0 1 0
    outer loop
      vertex -34.965 18.24 165.8
      vertex -31.175 18.24 155.8
      vertex -34.965 18.24 155.8
    endloop
  endfacet
  facet normal 0 -1 0
    outer loop
      vertex -34.965 8.24 155.8
      vertex -31.175 8.24 165.8
      vertex -34.965 8.24 165.8
    endloop
  endfacet
  facet normal 0 -1 -0
    outer loop
      vertex -31.175 8.24 165.8
      vertex -34.965 8.24 155.8
      vertex -31.175 8.24 155.8
    endloop
  endfacet
  facet normal 1 -0 0
    outer loop
      vertex 1.395 18.24 -119.8
      vertex 1.395 28.24 -129.8
      vertex 1.395 28.24 -119.8
    endloop
  endfacet
  facet normal 1 0 0
    outer loop
      vertex 1.395 28.24 -129.8
      vertex 1.395 18.24 -119.8
      vertex 1.395 18.24 -129.8
    endloop
  endfacet
  facet normal -0 0 1
    outer loop
      vertex -1.395 28.24 -119.8
      vertex 1.395 18.24 -119.8
      vertex 1.395 28.24 -119.8
    endloop
  endfacet
  facet normal 0 0 1
    outer loop
      vertex 1.395 18.24 -119.8
      vertex -1.395 28.24 -119.8
      vertex -1.395 18.24 -119.8
    endloop
  endfacet
  facet normal 0 0 -1
    outer loop
      vertex -1.395 18.24 -129.8
      vertex 1.395 28.24 -129.8
      vertex 1.395 18.24 -129.8
    endloop
  endfacet
  facet normal -0 0 -1
    outer loop
      vertex 1.395 28.24 -129.8
      vertex -1.395 18.24 -129.8
      vertex -1.395 28.24 -129.8
    endloop
  endfacet
  facet normal -1 0 0
    outer loop
      vertex -1.395 18.24 -129.8
      vertex -1.395 28.24 -119.8
      vertex -1.395 28.24 -129.8
    endloop
  endfacet
  facet normal -1 -0 0
    outer loop
      vertex -1.395 28.24 -119.8
      vertex -1.395 18.24 -129.8
      vertex -1.395 18.24 -119.8
    endloop
  endfacet
  facet normal 0 1 -0
    outer loop
      vertex 1.395 28.24 -129.8
      vertex -1.395 28.24 -119.8
      vertex 1.395 28.24 -119.8
    endloop
  endfacet
  facet normal 0 1 0
    outer loop
      vertex -1.395 28.24 -119.8
      vertex 1.395 28.24 -129.8
      vertex -1.395 28.24 -129.8
    endloop
  endfacet
  facet normal 0 -1 0
    outer loop
      vertex -1.395 18.24 -129.8
      vertex 1.395 18.24 -119.8
      vertex -1.395 18.24 -119.8
    endloop
  endfacet
  facet normal 0 -1 -0
    outer loop
      vertex 1.395 18.24 -119.8
      vertex -1.395 18.24 -129.8
      vertex 1.395 18.24 -129.8
    endloop
  endfacet
  facet normal 1 -0 0
    outer loop
      vertex -31.175 18.24 -119.8
      vertex -31.175 28.24 -129.8
      vertex -31.175 28.24 -119.8
    endloop
  endfacet
  facet normal 1 0 0
    outer loop
      vertex -31.175 28.24 -129.8
      vertex -31.175 18.24 -119.8
      vertex -31.175 18.24 -129.8
    endloop
  endfacet
  facet normal -0 0 1
    outer loop
      vertex -33.965 28.24 -119.8
      vertex -31.175 18.24 -119.8
      vertex -31.175 28.24 -119.8
    endloop
  endfacet
  facet normal 0 0 1
    outer loop
      vertex -31.175 18.24 -119.8
      vertex -33.965 28.24 -119.8
      vertex -33.965 18.24 -119.8
    endloop
  endfacet
  facet normal 0 0 -1
    outer loop
      vertex -33.965 18.24 -129.8
      vertex -31.175 28.24 -129.8
      vertex -31.175 18.24 -129.8
    endloop
  endfacet
  facet normal -0 0 -1
    outer loop
      vertex -31.175 28.24 -129.8
      vertex -33.965 18.24 -129.8
      vertex -33.965 28.24 -129.8
    endloop
  endfacet
  facet normal -1 0 0
    outer loop
      vertex -33.965 18.24 -129.8
      vertex -33.965 28.24 -119.8
      vertex -33.965 28.24 -129.8
    endloop
  endfacet
  facet normal -1 -0 0
    outer loop
      vertex -33.965 28.24 -119.8
      vertex -33.965 18.24 -129.8
      vertex -33.965 18.24 -119.8
    endloop
  endfacet
  facet normal 0 1 -0
    outer loop
      vertex -31.175 28.24 -129.8
      vertex -33.965 28.24 -119.8
      vertex -31.175 28.24 -119.8
    endloop
  endfacet
  facet normal 0 1 0
    outer loop
      vertex -33.965 28.24 -119.8
      vertex -31.175 28.24 -129.8
      vertex -33.965 28.24 -129.8
    endloop
  endfacet
  facet normal 0 -1 0
    outer loop
      vertex -33.965 18.24 -129.8
      vertex -31.175 18.24 -119.8
      vertex -33.965 18.24 -119.8
    endloop
  endfacet
  facet normal 0 -1 -0
    outer loop
      vertex -31.175 18.24 -119.8
      vertex -33.965 18.24 -129.8
      vertex -31.175 18.24 -129.8
    endloop
  endfacet
  facet normal 1 -0 0
    outer loop
      vertex -31.175 72.78 7.13
      vertex -31.175 82.78 -2.87
      vertex -31.175 82.78 7.13
    endloop
  endfacet
  facet normal 1 0 0
    outer loop
      vertex -31.175 82.78 -2.87
      vertex -31.175 72.78 7.13
      vertex -31.175 72.78 -2.87
    endloop
  endfacet
  facet normal -0 0 1
    outer loop
      vertex -34.965 82.78 7.13
      vertex -31.175 72.78 7.13
      vertex -31.175 82.78 7.13
    endloop
  endfacet
  facet normal 0 0 1
    outer loop
      vertex -31.175 72.78 7.13
      vertex -34.965 82.78 7.13
      vertex -34.965 72.78 7.13
    endloop
  endfacet
  facet normal 0 0 -1
    outer loop
      vertex -34.965 72.78 -2.87
      vertex -31.175 82.78 -2.87
      vertex -31.175 72.78 -2.87
    endloop
  endfacet
  facet normal -0 0 -1
    outer loop
      vertex -31.175 82.78 -2.87
      vertex -34.965 72.78 -2.87
      vertex -34.965 82.78 -2.87
    endloop
  endfacet
  facet normal -1 0 0
    outer loop
      vertex -34.965 72.78 -2.87
      vertex -34.965 82.78 7.13
      vertex -34.965 82.78 -2.87
    endloop
  endfacet
  facet normal -1 -0 0
    outer loop
      vertex -34.965 82.78 7.13
      vertex -34.965 72.78 -2.87
      vertex -34.965 72.78 7.13
    endloop
  endfacet
  facet normal 0 1 -0
    outer loop
      vertex -31.175 82.78 -2.87
      vertex -34.965 82.78 7.13
      vertex -31.175 82.78 7.13
    endloop
  endfacet
  facet normal 0 1 0
    outer loop
      vertex -34.965 82.78 7.13
      vertex -31.175 82.78 -2.87
      vertex -34.965 82.78 -2.87
    endloop
  endfacet
  facet normal 0 -1 0
    outer loop
      vertex -34.965 72.78 -2.87
      vertex -31.175 72.78 7.13
      vertex -34.965 72.78 7.13
    endloop
  endfacet
  facet normal 0 -1 -0
    outer loop
      vertex -31.175 72.78 7.13
      vertex -34.965 72.78 -2.87
      vertex -31.175 72.78 -2.87
    endloop
  endfacet
  facet normal 1 -0 0
    outer loop
      vertex 1.07 0 27.5
      vertex 1.07 10 17.5
      vertex 1.07 10 27.5
    endloop
  endfacet
  facet normal 1 0 0
    outer loop
      vertex 1.07 10 17.5
      vertex 1.07 0 27.5
      vertex 1.07 0 17.5
    endloop
  endfacet
  facet normal -0 0 1
    outer loop
      vertex 0.0699997 10 27.5
      vertex 1.07 0 27.5
      vertex 1.07 10 27.5
    endloop
  endfacet
  facet normal 0 0 1
    outer loop
      vertex 1.07 0 27.5
      vertex 0.0699997 10 27.5
      vertex 0.0699997 0 27.5
    endloop
  endfacet
  facet normal 0 0 -1
    outer loop
      vertex 0.0699997 0 17.5
      vertex 1.07 10 17.5
      vertex 1.07 0 17.5
    endloop
  endfacet
  facet normal -0 0 -1
    outer loop
      vertex 1.07 10 17.5
      vertex 0.0699997 0 17.5
      vertex 0.0699997 10 17.5
    endloop
  endfacet
  facet normal -1 0 0
    outer loop
      vertex 0.0699997 0 17.5
      vertex 0.0699997 10 27.5
      vertex 0.0699997 10 17.5
    endloop
  endfacet
  facet normal -1 -0 0
    outer loop
      vertex 0.0699997 10 27.5
      vertex 0.0699997 0 17.5
      vertex 0.0699997 0 27.5
    endloop
  endfacet
  facet normal 0 1 -0
    outer loop
      vertex 1.07 10 17.5
      vertex 0.0699997 10 27.5
      vertex 1.07 10 27.5
    endloop
  endfacet
  facet normal 0 1 0
    outer loop
      vertex 0.0699997 10 27.5
      vertex 1.07 10 17.5
      vertex 0.0699997 10 17.5
    endloop
  endfacet
  facet normal 0 -1 0
    outer loop
      vertex 0.0699997 0 17.5
      vertex 1.07 0 27.5
      vertex 0.0699997 0 27.5
    endloop
  endfacet
  facet normal 0 -1 -0
    outer loop
      vertex 1.07 0 27.5
      vertex 0.0699997 0 17.5
      vertex 1.07 0 17.5
    endloop
  endfacet
  facet normal 1 -0 0
    outer loop
      vertex -32.64 0 27.5
      vertex -32.64 10 17.5
      vertex -32.64 10 27.5
    endloop
  endfacet
  facet normal 1 0 0
    outer loop
      vertex -32.64 10 17.5
      vertex -32.64 0 27.5
      vertex -32.64 0 17.5
    endloop
  endfacet
  facet normal -0 0 1
    outer loop
      vertex -33.64 10 27.5
      vertex -32.64 0 27.5
      vertex -32.64 10 27.5
    endloop
  endfacet
  facet normal 0 0 1
    outer loop
      vertex -32.64 0 27.5
      vertex -33.64 10 27.5
      vertex -33.64 0 27.5
    endloop
  endfacet
  facet normal 0 0 -1
    outer loop
      vertex -33.64 0 17.5
      vertex -32.64 10 17.5
      vertex -32.64 0 17.5
    endloop
  endfacet
  facet normal -0 0 -1
    outer loop
      vertex -32.64 10 17.5
      vertex -33.64 0 17.5
      vertex -33.64 10 17.5
    endloop
  endfacet
  facet normal -1 0 0
    outer loop
      vertex -33.64 0 17.5
      vertex -33.64 10 27.5
      vertex -33.64 10 17.5
    endloop
  endfacet
  facet normal -1 -0 0
    outer loop
      vertex -33.64 10 27.5
      vertex -33.64 0 17.5
      vertex -33.64 0 27.5
    endloop
  endfacet
  facet normal 0 1 -0
    outer loop
      vertex -32.64 10 17.5
      vertex -33.64 10 27.5
      vertex -32.64 10 27.5
    endloop
  endfacet
  facet normal 0 1 0
    outer loop
      vertex -33.64 10 27.5
      vertex -32.64 10 17.5
      vertex -33.64 10 17.5
    endloop
  endfacet
  facet normal 0 -1 0
    outer loop
      vertex -33.64 0 17.5
      vertex -32.64 0 27.5
      vertex -33.64 0 27.5
    endloop
  endfacet
  facet normal 0 -1 -0
    outer loop
      vertex -32.64 0 27.5
      vertex -33.64 0 17.5
      vertex -32.64 0 17.5
    endloop
  endfacet
endsolid OpenSCAD_Model
