solid OpenSCAD_Model
  facet normal 1 -0 0
    outer loop
      vertex 2.395 45.78 48.87
      vertex 2.395 55.78 38.87
      vertex 2.395 55.78 48.87
    endloop
  endfacet
  facet normal 1 0 0
    outer loop
      vertex 2.395 55.78 38.87
      vertex 2.395 45.78 48.87
      vertex 2.395 45.78 38.87
    endloop
  endfacet
  facet normal -0 0 1
    outer loop
      vertex -1.395 55.78 48.87
      vertex 2.395 45.78 48.87
      vertex 2.395 55.78 48.87
    endloop
  endfacet
  facet normal 0 0 1
    outer loop
      vertex 2.395 45.78 48.87
      vertex -1.395 55.78 48.87
      vertex -1.395 45.78 48.87
    endloop
  endfacet
  facet normal 0 0 -1
    outer loop
      vertex -1.395 45.78 38.87
      vertex 2.395 55.78 38.87
      vertex 2.395 45.78 38.87
    endloop
  endfacet
  facet normal -0 0 -1
    outer loop
      vertex 2.395 55.78 38.87
      vertex -1.395 45.78 38.87
      vertex -1.395 55.78 38.87
    endloop
  endfacet
  facet normal -1 0 0
    outer loop
      vertex -1.395 45.78 38.87
      vertex -1.395 55.78 48.87
      vertex -1.395 55.78 38.87
    endloop
  endfacet
  facet normal -1 -0 0
    outer loop
      vertex -1.395 55.78 48.87
      vertex -1.395 45.78 38.87
      vertex -1.395 45.78 48.87
    endloop
  endfacet
  facet normal 0 1 -0
    outer loop
      vertex 2.395 55.78 38.87
      vertex -1.395 55.78 48.87
      vertex 2.395 55.78 48.87
    endloop
  endfacet
  facet normal 0 1 0
    outer loop
      vertex -1.395 55.78 48.87
      vertex 2.395 55.78 38.87
      vertex -1.395 55.78 38.87
    endloop
  endfacet
  facet normal 0 -1 0
    outer loop
      vertex -1.395 45.78 38.87
      vertex 2.395 45.78 48.87
      vertex -1.395 45.78 48.87
    endloop
  endfacet
  facet normal 0 -1 -0
    outer loop
      vertex 2.395 45.78 48.87
      vertex -1.395 45.78 38.87
      vertex 2.395 45.78 38.87
    endloop
  endfacet
  facet normal 1 -0 0
    outer loop
      vertex 2.395 8.24 103.8
      vertex 2.395 18.24 93.8
      vertex 2.395 18.24 103.8
    endloop
  endfacet
  facet normal 1 0 0
    outer loop
      vertex 2.395 18.24 93.8
      vertex 2.395 8.24 103.8
      vertex 2.395 8.24 93.8
    endloop
  endfacet
  facet normal -0 0 1
    outer loop
      vertex -1.395 18.24 103.8
      vertex 2.395 8.24 103.8
      vertex 2.395 18.24 103.8
    endloop
  endfacet
  facet normal 0 0 1
    outer loop
      vertex 2.395 8.24 103.8
      vertex -1.395 18.24 103.8
      vertex -1.395 8.24 103.8
    endloop
  endfacet
  facet normal 0 0 -1
    outer loop
      vertex -1.395 8.24 93.8
      vertex 2.395 18.24 93.8
      vertex 2.395 8.24 93.8
    endloop
  endfacet
  facet normal -0 0 -1
    outer loop
      vertex 2.395 18.24 93.8
      vertex -1.395 8.24 93.8
      vertex -1.395 18.24 93.8
    endloop
  endfacet
  facet normal -1 0 0
    outer loop
      vertex -1.395 8.24 93.8
      vertex -1.395 18.24 103.8
      vertex -1.395 18.24 93.8
    endloop
  endfacet
  facet normal -1 -0 0
    outer loop
      vertex -1.395 18.24 103.8
      vertex -1.395 8.24 93.8
      vertex -1.395 8.24 103.8
    endloop
  endfacet
  facet normal 0 1 -0
    outer loop
      vertex 2.395 18.24 93.8
      vertex -1.395 18.24 103.8
      vertex 2.395 18.24 103.8
    endloop
  endfacet
  facet normal 0 1 0
    outer loop
      vertex -1.395 18.24 103.8
      vertex 2.395 18.24 93.8
      vertex -1.395 18.24 93.8
    endloop
  endfacet
  facet normal 0 -1 0
    outer loop
      vertex -1.395 8.24 93.8
      vertex 2.395 8.24 103.8
      vertex -1.395 8.24 103.8
    endloop
  endfacet
  facet normal 0 -1 -0
    outer loop
      vertex 2.395 8.24 103.8
      vertex -1.395 8.24 93.8
      vertex 2.395 8.24 93.8
    endloop
  endfacet
  facet normal 1 -0 0
    outer loop
      vertex -31.175 8.24 103.8
      vertex -31.175 18.24 93.8
      vertex -31.175 18.24 103.8
    endloop
  endfacet
  facet normal 1 0 0
    outer loop
      vertex -31.175 18.24 93.8
      vertex -31.175 8.24 103.8
      vertex -31.175 8.24 93.8
    endloop
  endfacet
  facet normal -0 0 1
    outer loop
      vertex -34.965 18.24 103.8
      vertex -31.175 8.24 103.8
      vertex -31.175 18.24 103.8
    endloop
  endfacet
  facet normal 0 0 1
    outer loop
      vertex -31.175 8.24 103.8
      vertex -34.965 18.24 103.8
      vertex -34.965 8.24 103.8
    endloop
  endfacet
  facet normal 0 0 -1
    outer loop
      vertex -34.965 8.24 93.8
      vertex -31.175 18.24 93.8
      vertex -31.175 8.24 93.8
    endloop
  endfacet
  facet normal -0 0 -1
    outer loop
      vertex -31.175 18.24 93.8
      vertex -34.965 8.24 93.8
      vertex -34.965 18.24 93.8
    endloop
  endfacet
  facet normal -1 0 0
    outer loop
      vertex -34.965 8.24 93.8
      vertex -34.965 18.24 103.8
      vertex -34.965 18.24 93.8
    endloop
  endfacet
  facet normal -1 -0 0
    outer loop
      vertex -34.965 18.24 103.8
      vertex -34.965 8.24 93.8
      vertex -34.965 8.24 103.8
    endloop
  endfacet
  facet normal 0 1 -0
    outer loop
      vertex -31.175 18.24 93.8
      vertex -34.965 18.24 103.8
      vertex -31.175 18.24 103.8
    endloop
  endfacet
  facet normal 0 1 0
    outer loop
      vertex -34.965 18.24 103.8
      vertex -31.175 18.24 93.8
      vertex -34.965 18.24 93.8
    endloop
  endfacet
  facet normal 0 -1 0
    outer loop
      vertex -34.965 8.24 93.8
      vertex -31.175 8.24 103.8
      vertex -34.965 8.24 103.8
    endloop
  endfacet
  facet normal 0 -1 -0
    outer loop
      vertex -31.175 8.24 103.8
      vertex -34.965 8.24 93.8
      vertex -31.175 8.24 93.8
    endloop
  endfacet
  facet normal 1 -0 0
    outer loop
      vertex 1.395 18.24 -38.8
      vertex 1.395 28.24 -48.8
      vertex 1.395 28.24 -38.8
    endloop
  endfacet
  facet normal 1 0 0
    outer loop
      vertex 1.395 28.24 -48.8
      vertex 1.395 18.24 -38.8
      vertex 1.395 18.24 -48.8
    endloop
  endfacet
  facet normal -0 0 1
    outer loop
      vertex -1.395 28.24 -38.8
      vertex 1.395 18.24 -38.8
      vertex 1.395 28.24 -38.8
    endloop
  endfacet
  facet normal 0 0 1
    outer loop
      vertex 1.395 18.24 -38.8
      vertex -1.395 28.24 -38.8
      vertex -1.395 18.24 -38.8
    endloop
  endfacet
  facet normal 0 0 -1
    outer loop
      vertex -1.395 18.24 -48.8
      vertex 1.395 28.24 -48.8
      vertex 1.395 18.24 -48.8
    endloop
  endfacet
  facet normal -0 0 -1
    outer loop
      vertex 1.395 28.24 -48.8
      vertex -1.395 18.24 -48.8
      vertex -1.395 28.24 -48.8
    endloop
  endfacet
  facet normal -1 0 0
    outer loop
      vertex -1.395 18.24 -48.8
      vertex -1.395 28.24 -38.8
      vertex -1.395 28.24 -48.8
    endloop
  endfacet
  facet normal -1 -0 0
    outer loop
      vertex -1.395 28.24 -38.8
      vertex -1.395 18.24 -48.8
      vertex -1.395 18.24 -38.8
    endloop
  endfacet
  facet normal 0 1 -0
    outer loop
      vertex 1.395 28.24 -48.8
      vertex -1.395 28.24 -38.8
      vertex 1.395 28.24 -38.8
    endloop
  endfacet
  facet normal 0 1 0
    outer loop
      vertex -1.395 28.24 -38.8
      vertex 1.395 28.24 -48.8
      vertex -1.395 28.24 -48.8
    endloop
  endfacet
  facet normal 0 -1 0
    outer loop
      vertex -1.395 18.24 -48.8
      vertex 1.395 18.24 -38.8
      vertex -1.395 18.24 -38.8
    endloop
  endfacet
  facet normal 0 -1 -0
    outer loop
      vertex 1.395 18.24 -38.8
      vertex -1.395 18.24 -48.8
      vertex 1.395 18.24 -48.8
    endloop
  endfacet
  facet normal 1 -0 0
    outer loop
      vertex -31.175 18.24 -38.8
      vertex -31.175 28.24 -48.8
      vertex -31.175 28.24 -38.8
    endloop
  endfacet
  facet normal 1 0 0
    outer loop
      vertex -31.175 28.24 -48.8
      vertex -31.175 18.24 -38.8
      vertex -31.175 18.24 -48.8
    endloop
  endfacet
  facet normal -0 0 1
    outer loop
      vertex -33.965 28.24 -38.8
      vertex -31.175 18.24 -38.8
      vertex -31.175 28.24 -38.8
    endloop
  endfacet
  facet normal 0 0 1
    outer loop
      vertex -31.175 18.24 -38.8
      vertex -33.965 28.24 -38.8
      vertex -33.965 18.24 -38.8
    endloop
  endfacet
  facet normal 0 0 -1
    outer loop
      vertex -33.965 18.24 -48.8
      vertex -31.175 28.24 -48.8
      vertex -31.175 18.24 -48.8
    endloop
  endfacet
  facet normal -0 0 -1
    outer loop
      vertex -31.175 28.24 -48.8
      vertex -33.965 18.24 -48.8
      vertex -33.965 28.24 -48.8
    endloop
  endfacet
  facet normal -1 0 0
    outer loop
      vertex -33.965 18.24 -48.8
      vertex -33.965 28.24 -38.8
      vertex -33.965 28.24 -48.8
    endloop
  endfacet
  facet normal -1 -0 0
    outer loop
      vertex -33.965 28.24 -38.8
      vertex -33.965 18.24 -48.8
      vertex -33.965 18.24 -38.8
    endloop
  endfacet
  facet normal 0 1 -0
    outer loop
      vertex -31.175 28.24 -48.8
      vertex -33.965 28.24 -38.8
      vertex -31.175 28.24 -38.8
    endloop
  endfacet
  facet normal 0 1 0
    outer loop
      vertex -33.965 28.24 -38.8
      vertex -31.175 28.24 -48.8
      vertex -33.965 28.24 -48.8
    endloop
  endfacet
  facet normal 0 -1 0
    outer loop
      vertex -33.965 18.24 -48.8
      vertex -31.175 18.24 -38.8
      vertex -33.965 18.24 -38.8
    endloop
  endfacet
  facet normal 0 -1 -0
    outer loop
      vertex -31.175 18.24 -38.8
      vertex -33.965 18.24 -48.8
      vertex -31.175 18.24 -48.8
    endloop
  endfacet
  facet normal 1 -0 0
    outer loop
      vertex -31.175 45.78 7.13
      vertex -31.175 55.78 -2.87
      vertex -31.175 55.78 7.13
    endloop
  endfacet
  facet normal 1 0 0
    outer loop
      vertex -31.175 55.78 -2.87
      vertex -31.175 45.78 7.13
      vertex -31.175 45.78 -2.87
    endloop
  endfacet
  facet normal -0 0 1
    outer loop
      vertex -34.965 55.78 7.13
      vertex -31.175 45.78 7.13
      vertex -31.175 55.78 7.13
    endloop
  endfacet
  facet normal 0 0 1
    outer loop
      vertex -31.175 45.78 7.13
      vertex -34.965 55.78 7.13
      vertex -34.965 45.78 7.13
    endloop
  endfacet
  facet normal 0 0 -1
    outer loop
      vertex -34.965 45.78 -2.87
      vertex -31.175 55.78 -2.87
      vertex -31.175 45.78 -2.87
    endloop
  endfacet
  facet normal -0 0 -1
    outer loop
      vertex -31.175 55.78 -2.87
      vertex -34.965 45.78 -2.87
      vertex -34.965 55.78 -2.87
    endloop
  endfacet
  facet normal -1 0 0
    outer loop
      vertex -34.965 45.78 -2.87
      vertex -34.965 55.78 7.13
      vertex -34.965 55.78 -2.87
    endloop
  endfacet
  facet normal -1 -0 0
    outer loop
      vertex -34.965 55.78 7.13
      vertex -34.965 45.78 -2.87
      vertex -34.965 45.78 7.13
    endloop
  endfacet
  facet normal 0 1 -0
    outer loop
      vertex -31.175 55.78 -2.87
      vertex -34.965 55.78 7.13
      vertex -31.175 55.78 7.13
    endloop
  endfacet
  facet normal 0 1 0
    outer loop
      vertex -34.965 55.78 7.13
      vertex -31.175 55.78 -2.87
      vertex -34.965 55.78 -2.87
    endloop
  endfacet
  facet normal 0 -1 0
    outer loop
      vertex -34.965 45.78 -2.87
      vertex -31.175 45.78 7.13
      vertex -34.965 45.78 7.13
    endloop
  endfacet
  facet normal 0 -1 -0
    outer loop
      vertex -31.175 45.78 7.13
      vertex -34.965 45.78 -2.87
      vertex -31.175 45.78 -2.87
    endloop
  endfacet
  facet normal 1 -0 0
    outer loop
      vertex 1.07 0 27.5
      vertex 1.07 10 17.5
      vertex 1.07 10 27.5
    endloop
  endfacet
  facet normal 1 0 0
    outer loop
      vertex 1.07 10 17.5
      vertex 1.07 0 27.5
      vertex 1.07 0 17.5
    endloop
  endfacet
  facet normal -0 0 1
    outer loop
      vertex 0.0699997 10 27.5
      vertex 1.07 0 27.5
      vertex 1.07 10 27.5
    endloop
  endfacet
  facet normal 0 0 1
    outer loop
      vertex 1.07 0 27.5
      vertex 0.0699997 10 27.5
      vertex 0.0699997 0 27.5
    endloop
  endfacet
  facet normal 0 0 -1
    outer loop
      vertex 0.0699997 0 17.5
      vertex 1.07 10 17.5
      vertex 1.07 0 17.5
    endloop
  endfacet
  facet normal -0 0 -1
    outer loop
      vertex 1.07 10 17.5
      vertex 0.0699997 0 17.5
      vertex 0.0699997 10 17.5
    endloop
  endfacet
  facet normal -1 0 0
    outer loop
      vertex 0.0699997 0 17.5
      vertex 0.0699997 10 27.5
      vertex 0.0699997 10 17.5
    endloop
  endfacet
  facet normal -1 -0 0
    outer loop
      vertex 0.0699997 10 27.5
      vertex 0.0699997 0 17.5
      vertex 0.0699997 0 27.5
    endloop
  endfacet
  facet normal 0 1 -0
    outer loop
      vertex 1.07 10 17.5
      vertex 0.0699997 10 27.5
      vertex 1.07 10 27.5
    endloop
  endfacet
  facet normal 0 1 0
    outer loop
      vertex 0.0699997 10 27.5
      vertex 1.07 10 17.5
      vertex 0.0699997 10 17.5
    endloop
  endfacet
  facet normal 0 -1 0
    outer loop
      vertex 0.0699997 0 17.5
      vertex 1.07 0 27.5
      vertex 0.0699997 0 27.5
    endloop
  endfacet
  facet normal 0 -1 -0
    outer loop
      vertex 1.07 0 27.5
      vertex 0.0699997 0 17.5
      vertex 1.07 0 17.5
    endloop
  endfacet
  facet normal 1 -0 0
    outer loop
      vertex -32.64 0 27.5
      vertex -32.64 10 17.5
      vertex -32.64 10 27.5
    endloop
  endfacet
  facet normal 1 0 0
    outer loop
      vertex -32.64 10 17.5
      vertex -32.64 0 27.5
      vertex -32.64 0 17.5
    endloop
  endfacet
  facet normal -0 0 1
    outer loop
      vertex -33.64 10 27.5
      vertex -32.64 0 27.5
      vertex -32.64 10 27.5
    endloop
  endfacet
  facet normal 0 0 1
    outer loop
      vertex -32.64 0 27.5
      vertex -33.64 10 27.5
      vertex -33.64 0 27.5
    endloop
  endfacet
  facet normal 0 0 -1
    outer loop
      vertex -33.64 0 17.5
      vertex -32.64 10 17.5
      vertex -32.64 0 17.5
    endloop
  endfacet
  facet normal -0 0 -1
    outer loop
      vertex -32.64 10 17.5
      vertex -33.64 0 17.5
      vertex -33.64 10 17.5
    endloop
  endfacet
  facet normal -1 0 0
    outer loop
      vertex -33.64 0 17.5
      vertex -33.64 10 27.5
      vertex -33.64 10 17.5
    endloop
  endfacet
  facet normal -1 -0 0
    outer loop
      vertex -33.64 10 27.5
      vertex -33.64 0 17.5
      vertex -33.64 0 27.5
    endloop
  endfacet
  facet normal 0 1 -0
    outer loop
      vertex -32.64 10 17.5
      vertex -33.64 10 27.5
      vertex -32.64 10 27.5
    endloop
  endfacet
  facet normal 0 1 0
    outer loop
      vertex -33.64 10 27.5
      vertex -32.64 10 17.5
      vertex -33.64 10 17.5
    endloop
  endfacet
  facet normal 0 -1 0
    outer loop
      vertex -33.64 0 17.5
      vertex -32.64 0 27.5
      vertex -33.64 0 27.5
    endloop
  endfacet
  facet normal 0 -1 -0
    outer loop
      vertex -32.64 0 27.5
      vertex -33.64 0 17.5
      vertex -32.64 0 17.5
    endloop
  endfacet
endsolid OpenSCAD_Model
